<svg width="995" height="426" viewBox="0 0 995 426" fill="none" xmlns="http://www.w3.org/2000/svg">
<g clip-path="url(#clip0_1_16)">
<rect width="995" height="426" fill="white"/>
<rect width="995" height="426" fill="url(#paint0_linear_1_16)"/>
<g opacity="0.4" filter="url(#filter0_d_1_16)">
<path d="M122.1 203.192C122.768 200.924 125.149 199.628 127.419 200.297L550.374 324.921C552.644 325.59 553.942 327.97 553.274 330.238L422.475 774.151C421.807 776.418 419.425 777.715 417.155 777.046L-5.79974 652.421C-8.0695 651.753 -9.36791 649.372 -8.69984 647.105L122.1 203.192Z" fill="#F4F7FA"/>
<path d="M549.164 329.027L126.209 204.403L-4.59014 648.316L418.365 772.94L549.164 329.027Z" fill="#F4F7FA"/>
<path d="M179.079 219.981L126.209 204.403L109.859 259.892L162.729 275.47L179.079 219.981Z" fill="#E8EDF9"/>
<path d="M131.594 210.826C131.521 211.076 131.391 211.281 131.204 211.439C131.018 211.595 130.797 211.697 130.542 211.744C130.772 211.946 130.927 212.176 131.006 212.433C131.088 212.691 131.089 212.956 131.009 213.227C130.877 213.676 130.619 213.988 130.237 214.163C129.856 214.335 129.412 214.347 128.906 214.198C128.398 214.048 128.03 213.796 127.801 213.441C127.575 213.087 127.527 212.687 127.659 212.24C127.74 211.966 127.884 211.742 128.094 211.568C128.303 211.393 128.556 211.286 128.853 211.246C128.666 211.069 128.536 210.864 128.465 210.632C128.396 210.398 128.399 210.156 128.473 209.906C128.601 209.471 128.843 209.168 129.199 208.995C129.555 208.823 129.972 208.808 130.449 208.948C130.929 209.09 131.272 209.329 131.478 209.667C131.684 210.005 131.723 210.391 131.594 210.826ZM130.168 212.934C130.243 212.681 130.226 212.455 130.12 212.256C130.016 212.055 129.84 211.918 129.592 211.845C129.344 211.772 129.122 211.791 128.927 211.901C128.734 212.012 128.6 212.195 128.525 212.449C128.451 212.7 128.465 212.921 128.566 213.114C128.669 213.307 128.849 213.441 129.107 213.517C129.365 213.593 129.586 213.579 129.772 213.476C129.959 213.374 130.092 213.193 130.168 212.934ZM130.735 210.607C130.801 210.385 130.79 210.184 130.703 210.003C130.617 209.82 130.465 209.697 130.248 209.632C130.03 209.568 129.838 209.587 129.671 209.687C129.504 209.786 129.386 209.953 129.317 210.189C129.248 210.423 129.256 210.628 129.342 210.803C129.43 210.979 129.583 211.099 129.801 211.163C130.018 211.227 130.211 211.209 130.378 211.108C130.547 211.008 130.666 210.841 130.735 210.607Z" fill="#B7C0D8"/>
<path d="M144.242 220.395C144.643 220.513 144.986 220.737 145.252 221.029C145.634 220.928 146.043 220.926 146.444 221.044L152.502 222.829C152.904 222.947 153.247 223.171 153.513 223.463C153.895 223.362 154.304 223.36 154.705 223.478L160.213 225.101C161.429 225.459 162.111 226.785 161.734 228.062L160.201 233.264C159.987 233.992 159.459 234.581 158.775 234.854L154.588 236.528L152.871 245.904C152.417 248.386 153.124 249.921 154.038 252.556C154.206 253.04 154.217 253.572 154.07 254.073L152.707 258.697C152.331 259.974 151.04 260.718 149.824 260.36L128.345 254.031C127.129 253.673 126.447 252.347 126.824 251.07L128.186 246.446C128.334 245.946 128.632 245.505 129.036 245.189C131.232 243.471 132.659 242.564 133.623 240.232L137.264 231.424L134.654 227.747C134.228 227.147 134.103 226.365 134.317 225.638L135.85 220.435C136.226 219.159 137.518 218.414 138.734 218.772L144.242 220.395Z" fill="#F4F7FA"/>
<path d="M138.053 221.085L143.56 222.707L142.539 226.175L144.741 226.824L145.763 223.356L151.821 225.141L150.799 228.609L153.002 229.258L154.024 225.79L159.531 227.413L157.999 232.615L152.571 234.785L150.607 245.514L135.737 241.133L139.904 231.053L136.52 226.287L138.053 221.085Z" fill="#34364C"/>
<path d="M135.056 243.445L149.925 247.826L151.867 253.424L150.505 258.048L129.027 251.719L130.389 247.095L135.056 243.445Z" fill="#34364C"/>
<path d="M146.379 330.959L93.5095 315.381L77.1595 370.87L130.029 386.448L146.379 330.959Z" fill="#E8EDF9"/>
<path d="M98.7334 320.266L98.5256 320.971L98.4202 320.94C97.9406 320.807 97.5204 320.825 97.1596 320.996C96.7989 321.167 96.5227 321.478 96.331 321.93C96.6897 321.723 97.082 321.682 97.5082 321.808C97.9601 321.941 98.269 322.205 98.4351 322.6C98.6037 322.995 98.6138 323.444 98.4657 323.947C98.3126 324.466 98.0353 324.842 97.6335 325.074C97.2348 325.305 96.7872 325.347 96.2908 325.201C95.7806 325.05 95.4216 324.74 95.2141 324.27C95.0091 323.8 94.9964 323.26 95.1763 322.649L95.262 322.358C95.5261 321.462 95.9505 320.825 96.5355 320.446C97.1228 320.067 97.8262 319.999 98.6456 320.24L98.7334 320.266ZM97.0984 322.434C96.9112 322.379 96.7235 322.381 96.5357 322.44C96.3501 322.5 96.1952 322.607 96.0709 322.761L95.9945 323.02C95.8828 323.399 95.8735 323.725 95.9666 323.996C96.0603 324.265 96.2336 324.436 96.4865 324.511C96.7393 324.586 96.9674 324.55 97.1707 324.404C97.374 324.258 97.5211 324.031 97.6121 323.722C97.7031 323.413 97.7021 323.14 97.6096 322.901C97.517 322.663 97.3466 322.507 97.0984 322.434Z" fill="#B7C0D8"/>
<path d="M162.729 275.47L109.859 259.892L93.5095 315.381L146.379 330.959L162.729 275.47Z" fill="#B7C0D8"/>
<path d="M115.685 265.496L112.275 269.528L111.38 269.264L114.724 265.441L112.079 264.662L112.281 263.978L115.824 265.022L115.685 265.496Z" fill="#E8EDF9"/>
<path d="M120.146 296.297C119.772 296.596 119.343 296.896 118.858 297.191C117.149 298.235 115.221 298.94 114.02 299.252L113.818 299.304C113.01 299.513 112.361 300.155 112.116 300.985L110.474 306.559C110.097 307.836 110.779 309.162 111.995 309.52L133.474 315.849C134.69 316.207 135.981 315.463 136.358 314.186L138 308.611C138.245 307.782 138.047 306.891 137.482 306.277L137.341 306.123C136.5 305.21 135.263 303.572 134.392 301.768C134.145 301.257 133.947 300.773 133.795 300.319C134.834 300.359 135.822 299.657 136.143 298.567L137.252 294.804C137.473 294.052 137.333 293.246 136.876 292.64L136.144 291.671C137.009 290.729 137.682 289.57 138.072 288.247C139.38 283.809 137.012 279.2 132.783 277.954C128.553 276.708 124.065 279.296 122.757 283.735C122.345 285.132 122.298 286.547 122.559 287.868L121.721 288.175C121.009 288.435 120.453 289.038 120.232 289.789L119.123 293.553C118.802 294.642 119.251 295.767 120.146 296.297Z" fill="#E8EDF9"/>
<path d="M135.869 287.598C135.38 289.258 134.266 290.555 132.882 291.284L135.049 294.155L133.94 297.918L131.226 297.119C130.843 298.902 131.395 300.962 132.326 302.892C133.315 304.939 134.693 306.762 135.656 307.808L135.797 307.962L134.155 313.537L112.677 307.208L114.319 301.634L114.521 301.581C115.898 301.224 118.045 300.44 119.985 299.255C121.814 298.139 123.395 296.707 124.04 295.001L121.326 294.202L122.435 290.438L125.58 289.286C124.726 287.893 124.448 286.12 124.96 284.384C125.891 281.222 129.089 279.378 132.102 280.266C135.114 281.153 136.801 284.436 135.869 287.598Z" fill="#34364C"/>
<path d="M130.029 386.448L77.1595 370.87L60.8095 426.36L113.679 441.938L130.029 386.448Z" fill="#B7C0D8"/>
<path d="M79.1908 377.64L80.227 375.147L82.9732 375.956L82.756 376.693L80.7194 376.092L80.2191 377.272C80.4955 377.206 80.7824 377.217 81.0796 377.304C81.5667 377.448 81.899 377.715 82.0766 378.105C82.2565 378.496 82.2689 378.955 82.1139 379.481C81.9609 380 81.689 380.37 81.2983 380.591C80.9084 380.809 80.4525 380.841 79.9303 380.687C79.4621 380.549 79.1125 380.302 78.8812 379.947C78.6532 379.59 78.5902 379.19 78.6927 378.748L79.5179 378.991C79.4777 379.248 79.5105 379.465 79.6163 379.641C79.7229 379.815 79.8933 379.936 80.1274 380.005C80.3897 380.082 80.6208 380.049 80.8212 379.905C81.0237 379.761 81.1726 379.528 81.2677 379.205C81.3593 378.894 81.351 378.624 81.2426 378.397C81.1347 378.167 80.9392 378.01 80.6558 377.927C80.5013 377.881 80.364 377.864 80.2439 377.874C80.1246 377.882 79.9841 377.927 79.8224 378.009L79.1908 377.64Z" fill="#E8EDF9"/>
<path d="M268.467 306.626L215.598 291.048L199.248 346.537L252.117 362.115L268.467 306.626Z" fill="#B7C0D8"/>
<path d="M225.885 327.453C225.511 327.752 225.082 328.051 224.597 328.348C222.888 329.391 220.961 330.096 219.759 330.408L219.557 330.46C218.749 330.669 218.1 331.311 217.855 332.14L216.212 337.715C215.836 338.992 216.518 340.318 217.734 340.676L239.212 347.005C240.429 347.363 241.72 346.619 242.096 345.342L243.739 339.767C243.984 338.938 243.786 338.046 243.221 337.433L243.079 337.279C242.239 336.366 241.002 334.728 240.131 332.924C239.884 332.414 239.686 331.929 239.534 331.475C240.573 331.515 241.561 330.813 241.882 329.723L242.991 325.96C243.212 325.209 243.072 324.402 242.615 323.796L241.883 322.827C242.748 321.886 243.421 320.726 243.811 319.403C245.119 314.965 242.751 310.356 238.522 309.11C234.292 307.864 229.804 310.452 228.496 314.89C228.084 316.288 228.037 317.703 228.297 319.024L227.46 319.331C226.747 319.592 226.192 320.193 225.971 320.945L224.862 324.709C224.541 325.798 224.99 326.923 225.885 327.453Z" fill="#F4F7FA"/>
<path d="M241.608 318.754C241.119 320.414 240.005 321.711 238.621 322.44L240.788 325.311L239.679 329.074L236.965 328.275C236.582 330.058 237.134 332.118 238.065 334.048C239.054 336.095 240.431 337.918 241.395 338.964L241.536 339.118L239.894 344.693L218.415 338.364L220.058 332.789L220.26 332.737C221.637 332.38 223.783 331.596 225.724 330.411C227.553 329.295 229.134 327.863 229.779 326.157L227.065 325.358L228.174 321.594L231.319 320.442C230.465 319.049 230.187 317.276 230.699 315.54C231.63 312.378 234.828 310.534 237.841 311.422C240.853 312.309 242.54 315.592 241.608 318.754Z" fill="#34364C"/>
<path d="M235.768 417.604L182.898 402.026L166.548 457.516L219.418 473.094L235.768 417.604Z" fill="#B7C0D8"/>
<path d="M374.206 337.782L321.337 322.204L304.987 377.693L357.856 393.271L374.206 337.782Z" fill="#B7C0D8"/>
<path d="M331.623 358.609C331.25 358.908 330.82 359.208 330.336 359.504C328.626 360.547 326.699 361.252 325.497 361.564L325.295 361.616C324.488 361.826 323.839 362.467 323.594 363.296L321.951 368.871C321.575 370.148 322.256 371.474 323.473 371.833L344.951 378.161C346.168 378.52 347.459 377.775 347.835 376.498L349.478 370.923C349.723 370.093 349.525 369.203 348.959 368.589L348.818 368.435C347.977 367.522 346.74 365.884 345.87 364.081C345.623 363.569 345.425 363.085 345.273 362.631C346.312 362.672 347.299 361.969 347.62 360.88L348.73 357.116C348.951 356.365 348.81 355.558 348.354 354.953L347.622 353.983C348.486 353.042 349.16 351.883 349.55 350.559C350.857 346.12 348.489 341.512 344.26 340.266C340.031 339.02 335.542 341.608 334.234 346.046C333.823 347.444 333.776 348.859 334.036 350.18L333.199 350.487C332.486 350.748 331.931 351.35 331.709 352.101L330.601 355.865C330.279 356.954 330.728 358.08 331.623 358.609Z" fill="#F4F7FA"/>
<path d="M347.347 349.91C346.858 351.571 345.743 352.868 344.359 353.596L346.526 356.467L345.418 360.23L342.704 359.431C342.321 361.214 342.873 363.274 343.804 365.203C344.792 367.251 346.17 369.074 347.133 370.12L347.275 370.274L345.632 375.849L324.154 369.52L325.797 363.945L325.999 363.893C327.376 363.536 329.522 362.752 331.463 361.567C333.292 360.451 334.872 359.02 335.517 357.313L332.803 356.514L333.913 352.75L337.058 351.598C336.204 350.205 335.926 348.432 336.437 346.696C337.369 343.534 340.566 341.69 343.579 342.578C346.592 343.466 348.279 346.748 347.347 349.91Z" fill="#34364C"/>
<path d="M479.945 368.938L427.076 353.36L410.726 408.85L463.595 424.428L479.945 368.938Z" fill="#B7C0D8"/>
<path d="M437.362 389.765C436.988 390.064 436.559 390.364 436.075 390.66C434.365 391.703 432.438 392.408 431.236 392.72L431.034 392.772C430.227 392.982 429.577 393.623 429.333 394.452L427.69 400.028C427.314 401.304 427.995 402.63 429.212 402.989L450.69 409.317C451.907 409.676 453.198 408.931 453.574 407.654L455.217 402.079C455.461 401.25 455.263 400.359 454.698 399.745L454.557 399.591C453.716 398.678 452.479 397.04 451.609 395.237C451.362 394.725 451.164 394.241 451.012 393.787C452.05 393.827 453.038 393.125 453.359 392.036L454.468 388.272C454.69 387.521 454.55 386.714 454.092 386.108L453.361 385.14C454.225 384.198 454.899 383.038 455.289 381.716C456.596 377.277 454.228 372.668 449.999 371.422C445.77 370.176 441.281 372.764 439.973 377.203C439.562 378.6 439.515 380.015 439.775 381.336L438.938 381.643C438.225 381.904 437.67 382.506 437.448 383.257L436.339 387.021C436.018 388.11 436.468 389.236 437.362 389.765Z" fill="#F4F7FA"/>
<path d="M453.086 381.067C452.596 382.727 451.482 384.024 450.098 384.752L452.265 387.623L451.156 391.387L448.443 390.587C448.059 392.37 448.611 394.43 449.543 396.36C450.531 398.407 451.909 400.23 452.872 401.276L453.013 401.43L451.371 407.005L429.893 400.677L431.536 395.102L431.738 395.049C433.115 394.692 435.261 393.908 437.202 392.723C439.03 391.607 440.611 390.175 441.256 388.47L438.542 387.67L439.651 383.906L442.796 382.754C441.943 381.362 441.664 379.589 442.176 377.852C443.108 374.69 446.305 372.846 449.318 373.734C452.331 374.622 454.017 377.905 453.086 381.067Z" fill="#34364C"/>
<path d="M390.556 282.293L337.687 266.715L321.337 322.204L374.206 337.782L390.556 282.293Z" fill="#E8EDF9"/>
<path fill-rule="evenodd" clip-rule="evenodd" d="M358.115 282.707C358.52 281.469 359.787 280.765 360.976 281.115L364.281 282.089C365.47 282.44 366.153 283.719 365.823 284.978L365.65 285.634L366.734 285.953C367.95 286.311 368.631 287.637 368.255 288.914L367.842 290.316C370.411 290.453 372.891 291.598 374.524 294.17C377.916 299.514 375.027 307.769 368.253 310.754C366.618 311.474 365.319 312.088 364.333 312.824C364.108 312.992 363.908 313.16 363.732 313.329L365.871 314.304C366.918 314.781 367.444 316 367.104 317.157L365.826 321.492C365.45 322.769 364.159 323.514 362.942 323.155L339.834 316.347C338.617 315.988 337.936 314.663 338.312 313.386L339.59 309.051C339.931 307.893 341.034 307.155 342.173 307.321L344.499 307.662C344.442 307.424 344.366 307.175 344.267 306.911C343.837 305.758 343.079 304.538 342.096 303.047C338.023 296.866 340.072 288.363 345.819 285.712C348.586 284.437 351.29 284.819 353.523 286.097L353.937 284.695C354.313 283.418 355.604 282.673 356.821 283.032L357.904 283.351L358.115 282.707Z" fill="#F4F7FA"/>
<path fill-rule="evenodd" clip-rule="evenodd" d="M360.295 283.428L363.6 284.401L362.834 287.317L366.053 288.265L365.031 291.733L361.915 290.815L360.91 294.786C360.992 294.729 361.076 294.674 361.161 294.622C365.159 292.152 370.146 291.681 372.59 295.531C375.043 299.394 373.084 306.042 367.402 308.546C364.183 309.964 361.256 311.383 360.465 314.487L364.9 316.508L363.623 320.844L340.515 314.035L341.793 309.7L346.616 310.407C347.634 307.369 345.944 304.59 344.009 301.653C340.592 296.468 342.55 289.821 346.706 287.904C350.848 285.994 354.782 289.095 356.802 293.337C356.845 293.428 356.886 293.519 356.924 293.612L358.233 289.73L355.117 288.812L356.139 285.344L359.358 286.292L360.295 283.428ZM353.27 295.789C354.266 299.856 353.338 303.993 352.818 305.757C351.806 305.461 348.509 302.575 347.341 299.087C346.5 296.577 347.031 293.375 348.631 292.544C350.231 291.712 352.647 293.247 353.27 295.789ZM362.8 298.597C359.757 301.474 358.294 305.453 357.774 307.218C358.786 307.518 363.121 306.88 365.993 304.583C368.061 302.93 369.351 299.952 368.457 298.385C367.564 296.819 364.701 296.799 362.8 298.597Z" fill="#34364D"/>
<path d="M357.856 393.271L304.987 377.693L288.637 433.183L341.506 448.761L357.856 393.271Z" fill="#E8EDF9"/>
<path d="M284.817 251.137L231.948 235.559L215.598 291.048L268.467 306.626L284.817 251.137Z" fill="#E8EDF9"/>
<path d="M248.129 258.471C248.096 257.768 248.178 257.043 248.389 256.325C249.363 253.023 252.702 251.097 255.849 252.024C258.996 252.951 260.758 256.38 259.785 259.683C259.5 260.651 259.01 261.503 258.38 262.199C258.93 262.405 259.398 262.832 259.655 263.427C261.054 266.659 261.857 270.916 260.593 275.203C259.69 278.269 258.015 280.244 256.174 281.481L258.615 282.716C259.611 283.22 260.097 284.408 259.766 285.53L258.489 289.865C258.308 290.479 257.902 290.998 257.362 291.31C256.821 291.622 256.189 291.701 255.604 291.528L234.635 285.349C233.418 284.991 232.737 283.665 233.113 282.388L234.391 278.053C234.721 276.932 235.771 276.198 236.88 276.313L239.336 276.566C238.442 274.521 238.093 271.935 239.004 268.842C239.989 265.497 242.083 262.947 244.19 261.141C245.514 260.006 246.896 259.118 248.129 258.471Z" fill="#F4F7FA"/>
<path d="M251.115 272.078L248.912 271.429C250.163 267.184 252.638 263.307 256.267 261.004C256.871 260.522 257.343 259.846 257.582 259.034C258.179 257.008 257.098 254.905 255.168 254.336C253.238 253.768 251.189 254.949 250.592 256.975C250.298 257.974 250.412 258.992 250.834 259.836C248.17 260.826 242.822 264.009 241.207 269.491C239.577 275.023 243.05 278.481 245.082 279.579L236.593 278.702L235.316 283.037L256.286 289.216L257.563 284.881L249.771 280.937C252.113 281.076 256.785 280.002 258.39 274.554C259.441 270.987 258.795 267.341 257.549 264.461C254.921 265.571 251.991 269.105 251.115 272.078Z" fill="#34364C"/>
<path d="M252.118 362.115L199.248 346.537L182.898 402.027L235.768 417.605L252.118 362.115Z" fill="#E8EDF9"/>
<path d="M496.295 313.449L443.426 297.871L427.076 353.36L479.945 368.938L496.295 313.449Z" fill="#E8EDF9"/>
<path d="M464.255 311.865C465.006 311.993 465.636 312.502 465.94 313.223L468.813 320.049C473.58 322.909 475.369 327.869 475.522 333.448C475.681 339.198 474.139 345.983 472.127 352.814C471.751 354.091 470.459 354.836 469.243 354.477L448.703 348.425C447.534 348.081 446.851 346.837 447.147 345.592C447.412 344.482 448.211 342.655 449.513 340.931L449.537 340.9C447.118 341.457 444.898 340.499 443.565 338.718C441.945 336.554 441.685 333.175 443.889 330.563C445.478 328.679 446.842 327.836 447.873 327.198C448.836 326.602 449.243 326.335 449.721 325.5C452.619 320.444 456.207 318.096 459.49 317.51C459.632 316.878 459.841 316.291 460.073 315.77C460.651 314.474 461.467 313.36 462.193 312.583C462.733 312.006 463.505 311.737 464.255 311.865Z" fill="#F4F7FA"/>
<path fill-rule="evenodd" clip-rule="evenodd" d="M467.005 321.791L463.824 314.235C462.681 315.458 461.237 317.785 461.702 319.909C461.201 319.811 460.71 319.76 460.305 319.806C457.723 320.097 454.465 321.854 451.693 326.691C450.89 328.092 450.032 328.623 449.011 329.254C448.049 329.849 446.943 330.534 445.604 332.121C442.845 335.391 446.197 340.462 450.453 338.008C452.847 336.628 454.678 336.307 456.215 336.037C458.428 335.649 460.032 335.367 461.827 332.19C461.735 333.892 460.478 337.602 456.192 338.829C451.906 340.055 449.731 344.659 449.385 346.113L469.924 352.165C473.929 338.572 475.675 326.323 467.005 321.791Z" fill="#34364C"/>
<path d="M458.302 328.638C459.214 328.907 460.183 328.349 460.465 327.391C460.747 326.433 460.236 325.439 459.324 325.17C458.411 324.901 457.443 325.46 457.16 326.417C456.878 327.375 457.389 328.369 458.302 328.638Z" fill="#F4F7FA"/>
<path d="M463.595 424.427L410.726 408.849L394.376 464.338L447.245 479.917L463.595 424.427Z" fill="#E8EDF9"/>
<path d="M231.948 235.559L179.079 219.981L162.729 275.47L215.598 291.048L231.948 235.559Z" fill="#B7C0D8"/>
<path d="M199.908 233.975C200.658 234.103 201.29 234.612 201.593 235.333L204.467 242.159C209.233 245.018 211.022 249.979 211.176 255.558C211.334 261.307 209.793 268.093 207.78 274.924C207.404 276.201 206.113 276.946 204.896 276.587L184.356 270.535C183.187 270.191 182.504 268.947 182.801 267.702C183.066 266.592 183.865 264.764 185.166 263.041L185.19 263.01C182.771 263.567 180.551 262.609 179.218 260.828C177.598 258.664 177.338 255.285 179.542 252.673C181.131 250.789 182.495 249.945 183.526 249.307C184.489 248.711 184.896 248.444 185.374 247.61C188.272 242.554 191.86 240.206 195.144 239.619C195.285 238.988 195.494 238.401 195.726 237.88C196.304 236.584 197.12 235.47 197.846 234.693C198.386 234.116 199.158 233.847 199.908 233.975Z" fill="#F4F7FA"/>
<path fill-rule="evenodd" clip-rule="evenodd" d="M202.658 243.901L199.478 236.345C198.334 237.568 196.89 239.895 197.355 242.019C196.855 241.921 196.363 241.87 195.958 241.916C193.376 242.206 190.118 243.964 187.346 248.801C186.544 250.201 185.685 250.733 184.665 251.364C183.703 251.959 182.596 252.643 181.257 254.231C178.498 257.501 181.849 262.572 186.106 260.118C188.499 258.738 190.331 258.416 191.868 258.147C194.081 257.759 195.685 257.477 197.48 254.3C197.388 256.001 196.131 259.712 191.845 260.938C187.559 262.165 185.385 266.769 185.038 268.223L205.577 274.275C209.582 260.682 211.328 248.432 202.658 243.901Z" fill="#34364C"/>
<path d="M193.955 250.748C194.867 251.017 195.835 250.459 196.118 249.501C196.4 248.543 195.889 247.549 194.976 247.28C194.064 247.011 193.095 247.57 192.813 248.527C192.531 249.485 193.042 250.479 193.955 250.748Z" fill="#F4F7FA"/>
<path d="M199.248 346.537L146.379 330.959L130.029 386.448L182.898 402.026L199.248 346.537Z" fill="#B7C0D8"/>
<path d="M215.598 291.048L162.729 275.47L146.379 330.959L199.248 346.537L215.598 291.048Z" fill="#E8EDF9"/>
<path d="M173.015 311.875C172.642 312.174 172.213 312.474 171.728 312.769C170.018 313.813 168.091 314.518 166.889 314.83L166.687 314.882C165.88 315.091 165.23 315.733 164.986 316.563L163.343 322.137C162.967 323.414 163.648 324.74 164.865 325.098L186.343 331.427C187.559 331.785 188.851 331.041 189.227 329.764L190.87 324.189C191.114 323.36 190.916 322.468 190.352 321.855L190.21 321.701C189.369 320.788 188.132 319.15 187.262 317.346C187.015 316.835 186.817 316.351 186.665 315.897C187.704 315.937 188.691 315.235 189.012 314.145L190.121 310.382C190.342 309.631 190.202 308.824 189.745 308.218L189.014 307.249C189.878 306.308 190.552 305.148 190.941 303.825C192.25 299.387 189.881 294.778 185.652 293.532C181.423 292.286 176.934 294.874 175.626 299.312C175.215 300.71 175.168 302.125 175.428 303.446L174.59 303.753C173.878 304.014 173.323 304.615 173.102 305.367L171.992 309.131C171.671 310.22 172.12 311.345 173.015 311.875Z" fill="#F4F7FA"/>
<path d="M188.739 303.176C188.25 304.836 187.135 306.133 185.751 306.862L187.919 309.733L186.809 313.496L184.095 312.697C183.713 314.48 184.264 316.54 185.196 318.47C186.184 320.517 187.562 322.34 188.526 323.387L188.667 323.54L187.024 329.115L165.546 322.786L167.188 317.212L167.391 317.159C168.768 316.802 170.914 316.018 172.855 314.833C174.683 313.717 176.264 312.285 176.909 310.579L174.195 309.78L175.304 306.016L178.45 304.864C177.596 303.471 177.317 301.698 177.829 299.962C178.761 296.8 181.958 294.956 184.971 295.844C187.984 296.731 189.67 300.014 188.739 303.176Z" fill="#34364C"/>
<path d="M182.898 402.026L130.029 386.448L113.679 441.938L166.548 457.516L182.898 402.026Z" fill="#E8EDF9"/>
<path d="M321.337 322.204L268.468 306.626L252.118 362.115L304.987 377.693L321.337 322.204Z" fill="#E8EDF9"/>
<path opacity="0.5" d="M321.337 322.204L268.468 306.626L252.118 362.115L304.987 377.693L321.337 322.204Z" fill="#7B61FF"/>
<path d="M288.637 433.182L235.768 417.604L219.418 473.093L272.287 488.671L288.637 433.182Z" fill="#E8EDF9"/>
<path opacity="0.5" d="M288.637 433.182L235.768 417.604L219.418 473.093L272.287 488.671L288.637 433.182Z" fill="#7B61FF"/>
<path d="M427.076 353.36L374.206 337.782L357.856 393.272L410.726 408.85L427.076 353.36Z" fill="#E8EDF9"/>
<path d="M384.493 374.187C384.119 374.486 383.69 374.786 383.206 375.082C381.496 376.125 379.568 376.83 378.367 377.142L378.165 377.194C377.357 377.404 376.707 378.045 376.463 378.874L374.821 384.449C374.444 385.727 375.126 387.052 376.342 387.411L397.821 393.739C399.037 394.098 400.328 393.353 400.705 392.076L402.347 386.501C402.592 385.671 402.394 384.781 401.829 384.167L401.688 384.013C400.847 383.1 399.609 381.463 398.739 379.659C398.492 379.147 398.294 378.663 398.142 378.209C399.181 378.249 400.169 377.547 400.49 376.458L401.599 372.694C401.82 371.943 401.68 371.136 401.223 370.53L400.492 369.562C401.356 368.62 402.03 367.461 402.419 366.138C403.727 361.698 401.359 357.09 397.129 355.844C392.901 354.598 388.412 357.186 387.104 361.625C386.692 363.022 386.645 364.438 386.906 365.758L386.068 366.065C385.356 366.326 384.8 366.928 384.579 367.679L383.47 371.442C383.149 372.532 383.598 373.658 384.493 374.187Z" fill="#F4F7FA"/>
<path d="M400.216 365.488C399.727 367.149 398.613 368.446 397.229 369.174L399.396 372.045L398.287 375.809L395.573 375.009C395.19 376.792 395.742 378.852 396.673 380.781C397.661 382.829 399.04 384.652 400.003 385.698L400.145 385.852L398.502 391.427L377.023 385.099L378.666 379.523L378.868 379.471C380.245 379.114 382.391 378.33 384.332 377.145C386.161 376.029 387.742 374.597 388.387 372.891L385.673 372.092L386.782 368.328L389.927 367.176C389.074 365.783 388.795 364.011 389.307 362.274C390.238 359.112 393.436 357.268 396.448 358.156C399.461 359.044 401.148 362.326 400.216 365.488Z" fill="#34364C"/>
<path d="M532.815 384.516L479.945 368.938L463.595 424.428L516.465 440.006L532.815 384.516Z" fill="#E8EDF9"/>
<path d="M490.232 405.343C489.858 405.642 489.429 405.942 488.944 406.237C487.235 407.281 485.307 407.986 484.106 408.298L483.903 408.35C483.096 408.56 482.446 409.201 482.202 410.031L480.559 415.606C480.183 416.882 480.865 418.208 482.081 418.567L503.559 424.895C504.776 425.254 506.067 424.509 506.443 423.233L508.086 417.657C508.33 416.828 508.132 415.937 507.568 415.323L507.426 415.17C506.586 414.256 505.348 412.618 504.478 410.814C504.231 410.303 504.033 409.819 503.881 409.365C504.92 409.405 505.908 408.703 506.229 407.614L507.338 403.85C507.559 403.099 507.419 402.292 506.962 401.686L506.23 400.718C507.094 399.776 507.768 398.616 508.158 397.294C509.466 392.855 507.098 388.246 502.868 387C498.639 385.754 494.15 388.342 492.843 392.781C492.431 394.178 492.384 395.593 492.644 396.914L491.806 397.221C491.094 397.482 490.539 398.084 490.318 398.835L489.208 402.599C488.888 403.688 489.337 404.814 490.232 405.343Z" fill="#F4F7FA"/>
<path d="M505.955 396.644C505.466 398.305 504.352 399.602 502.968 400.33L505.135 403.201L504.025 406.965L501.312 406.165C500.929 407.948 501.481 410.008 502.412 411.938C503.4 413.985 504.778 415.808 505.742 416.855L505.883 417.008L504.24 422.583L482.762 416.255L484.405 410.68L484.607 410.627C485.984 410.27 488.13 409.486 490.071 408.301C491.899 407.185 493.48 405.753 494.125 404.047L491.412 403.248L492.52 399.484L495.666 398.332C494.812 396.94 494.534 395.166 495.045 393.43C495.977 390.268 499.175 388.424 502.187 389.312C505.2 390.2 506.886 393.483 505.955 396.644Z" fill="#34364C"/>
<path d="M443.426 297.871L390.556 282.293L374.206 337.782L427.076 353.36L443.426 297.871Z" fill="#B7C0D8"/>
<path d="M406.737 305.205C406.704 304.502 406.786 303.777 406.998 303.06C407.971 299.757 411.311 297.831 414.458 298.758C417.605 299.686 419.366 303.115 418.393 306.417C418.108 307.385 417.618 308.237 416.988 308.933C417.538 309.139 418.006 309.566 418.263 310.161C419.662 313.393 420.465 317.65 419.201 321.937C418.298 325.003 416.623 326.978 414.782 328.215L417.223 329.45C418.22 329.955 418.705 331.142 418.374 332.264L417.097 336.6C416.916 337.213 416.511 337.733 415.97 338.044C415.429 338.356 414.797 338.435 414.213 338.263L393.243 332.084C392.026 331.725 391.345 330.4 391.721 329.123L392.998 324.787C393.329 323.666 394.379 322.932 395.489 323.047L397.944 323.3C397.05 321.255 396.701 318.669 397.612 315.576C398.598 312.231 400.691 309.681 402.798 307.875C404.122 306.74 405.504 305.853 406.737 305.205Z" fill="#F4F7FA"/>
<path d="M409.723 318.812L407.52 318.163C408.771 313.918 411.246 310.041 414.874 307.738C415.479 307.256 415.951 306.58 416.191 305.768C416.787 303.742 415.706 301.639 413.776 301.07C411.846 300.502 409.797 301.683 409.201 303.709C408.906 304.708 409.02 305.727 409.443 306.57C406.778 307.56 401.43 310.743 399.815 316.225C398.185 321.758 401.657 325.215 403.69 326.314L395.202 325.437L393.924 329.772L414.894 335.951L416.172 331.615L408.379 327.671C410.721 327.811 415.393 326.736 416.998 321.288C418.05 317.721 417.403 314.075 416.157 311.195C413.529 312.305 410.599 315.839 409.723 318.812Z" fill="#34364C"/>
<path d="M410.726 408.849L357.856 393.271L341.506 448.761L394.376 464.339L410.726 408.849Z" fill="#B7C0D8"/>
<path d="M337.687 266.715L284.817 251.137L268.467 306.626L321.337 322.204L337.687 266.715Z" fill="#B7C0D8"/>
<path d="M297.593 268.721C297.424 269.292 297.35 269.867 297.36 270.428L296.115 270.643C295.503 269.397 294.417 268.414 293.017 268.001C290.279 267.194 287.373 268.87 286.527 271.743C285.772 274.304 286.909 276.952 289.103 278.068L288.946 288.236C288.942 288.448 288.966 288.659 289.016 288.863L289.76 291.892L289.75 291.891C288.64 291.776 287.59 292.51 287.26 293.631L285.982 297.966C285.606 299.244 286.288 300.569 287.504 300.928L308.474 307.106C309.058 307.278 309.69 307.2 310.231 306.888C310.772 306.576 311.178 306.057 311.358 305.443L312.636 301.108C312.967 299.986 312.481 298.799 311.484 298.294L311.442 298.273L313.703 296.137C313.856 295.993 313.99 295.828 314.103 295.648L319.483 287.02C321.933 287.272 324.323 285.663 325.078 283.102C325.924 280.229 324.391 277.246 321.654 276.439C320.251 276.026 318.804 276.264 317.613 276.981L316.685 276.127C316.999 275.66 317.25 275.135 317.418 274.563C318.265 271.69 316.732 268.707 313.995 267.9C311.257 267.094 308.352 268.769 307.505 271.642C308.352 268.769 306.819 265.786 304.082 264.98C301.344 264.173 298.439 265.848 297.593 268.721Z" fill="#F4F7FA"/>
<path d="M302.742 273.171C303.898 273.059 304.94 272.224 305.302 270.993C305.773 269.397 304.921 267.74 303.401 267.292C301.88 266.844 300.266 267.774 299.795 269.37C299.361 270.845 300.055 272.372 301.363 272.949L297.063 283.014L292.733 275.873C293.43 275.505 293.991 274.851 294.237 274.015C294.707 272.418 293.856 270.761 292.335 270.313C290.814 269.865 289.2 270.796 288.73 272.392C288.26 273.988 289.111 275.645 290.632 276.093C290.9 276.172 291.171 276.208 291.437 276.206L291.251 288.211L292.826 294.628L289.463 294.281L288.186 298.616L309.156 304.794L310.433 300.459L307.378 298.913L312.179 294.378L318.532 284.189C318.755 284.336 319.002 284.453 319.27 284.531C320.79 284.979 322.405 284.049 322.875 282.453C323.345 280.856 322.493 279.199 320.973 278.751C319.452 278.303 317.838 279.234 317.368 280.83C317.121 281.667 317.237 282.52 317.623 283.207L310.114 286.859L311.958 276.071C313.37 276.296 314.781 275.389 315.216 273.914C315.686 272.318 314.834 270.661 313.314 270.213C311.793 269.764 310.179 270.695 309.709 272.291C309.346 273.522 309.769 274.788 310.679 275.51L303.929 283.78L302.742 273.171Z" fill="#34364C"/>
<path d="M304.987 377.693L252.118 362.115L235.768 417.605L288.637 433.183L304.987 377.693Z" fill="#B7C0D8"/>
<path opacity="0.5" d="M276.316 399.364C277.318 395.963 275.371 392.392 271.966 391.389C268.562 390.386 264.989 392.33 263.987 395.731C262.985 399.132 264.933 402.703 268.337 403.706C271.742 404.709 275.314 402.765 276.316 399.364Z" fill="#7B61FF"/>
<path d="M549.164 329.027L496.295 313.449L479.945 368.938L532.814 384.516L549.164 329.027Z" fill="#B7C0D8"/>
<path d="M514.327 329.441C514.729 329.56 515.072 329.783 515.338 330.075C515.719 329.974 516.129 329.972 516.53 330.091L522.588 331.875C522.989 331.994 523.332 332.217 523.598 332.509C523.98 332.408 524.39 332.406 524.791 332.525L530.298 334.147C531.515 334.506 532.196 335.831 531.82 337.108L530.287 342.311C530.073 343.038 529.544 343.627 528.861 343.901L524.673 345.575L522.957 354.95C522.503 357.432 523.21 358.968 524.124 361.602C524.292 362.086 524.303 362.619 524.156 363.119L522.793 367.743C522.417 369.02 521.126 369.765 519.909 369.406L498.431 363.078C497.214 362.719 496.533 361.393 496.909 360.116L498.272 355.492C498.419 354.992 498.717 354.551 499.121 354.235C501.317 352.517 502.745 351.61 503.709 349.278L507.35 340.47L504.739 336.793C504.313 336.193 504.188 335.412 504.403 334.684L505.936 329.482C506.312 328.205 507.603 327.46 508.82 327.819L514.327 329.441Z" fill="#F4F7FA"/>
<path d="M508.139 330.131L513.646 331.753L512.624 335.222L514.827 335.871L515.849 332.403L521.907 334.188L520.885 337.656L523.088 338.305L524.11 334.837L529.617 336.459L528.084 341.662L522.657 343.831L520.692 354.56L505.823 350.179L509.99 340.099L506.606 335.333L508.139 330.131Z" fill="#34364C"/>
<path d="M505.142 352.491L520.011 356.872L521.953 362.47L520.591 367.094L499.112 360.765L500.475 356.141L505.142 352.491Z" fill="#34364C"/>
<path d="M516.465 440.005L463.595 424.427L447.245 479.916L500.115 495.494L516.465 440.005Z" fill="#B7C0D8"/>
</g>
<path d="M398.053 76.1983C397.593 76.6695 397.056 77.1508 396.444 77.6358C394.282 79.3471 391.767 80.6324 390.178 81.2585L389.911 81.3639C388.842 81.7847 388.062 82.7696 387.866 83.9445L386.549 91.839C386.247 93.6472 387.397 95.3459 389.118 95.6331L419.503 100.704C421.224 100.991 422.864 99.7578 423.165 97.9496L424.483 90.0551C424.679 88.8802 424.261 87.6954 423.387 86.9504L423.168 86.7639C421.869 85.6557 419.907 83.6234 418.418 81.3029C417.997 80.6453 417.646 80.016 417.363 79.4207C418.788 79.3028 420.02 78.1786 420.278 76.6355L421.167 71.3059C421.345 70.2421 421.019 69.1625 420.294 68.4109L419.135 67.2085C420.159 65.777 420.886 64.08 421.199 62.2065C422.248 55.9208 418.248 50.0159 412.265 49.0175C406.282 48.019 400.582 52.3052 399.533 58.5908C399.203 60.5698 399.374 62.5121 399.949 64.2741L398.856 64.8332C397.926 65.3087 397.268 66.224 397.09 67.2879L396.201 72.6174C395.943 74.1606 396.743 75.6239 398.053 76.1983Z" fill="#34364C"/>
<path d="M418.083 61.6864C417.69 64.0377 416.384 65.9962 414.615 67.2231L418.051 70.7859L417.162 76.1154L413.323 75.4747C413.095 77.976 414.192 80.7002 415.784 83.1825C417.474 85.8168 419.658 88.0786 421.148 89.3487L421.367 89.5351L420.049 97.4296L389.665 92.3591L390.982 84.4646L391.25 84.3592C393.071 83.6417 395.872 82.2118 398.325 80.2689C400.638 78.4382 402.559 76.2177 403.156 73.7781L399.317 73.1375L400.206 67.808L404.311 65.7088C402.913 63.9474 402.239 61.5701 402.649 59.1109C403.396 54.6335 407.457 51.5804 411.719 52.2916C415.981 53.0027 418.83 57.209 418.083 61.6864Z" fill="#F4F7FA"/>
<path d="M83.064 95.576C79.64 95.576 76.536 94.84 73.752 93.368C71 91.864 68.824 89.8 67.224 87.176C65.656 84.52 64.872 81.528 64.872 78.2C64.872 74.872 65.656 71.896 67.224 69.272C68.824 66.616 71 64.552 73.752 63.08C76.536 61.576 79.656 60.824 83.112 60.824C86.024 60.824 88.648 61.336 90.984 62.36C93.352 63.384 95.336 64.856 96.936 66.776L91.944 71.384C89.672 68.76 86.856 67.448 83.496 67.448C81.416 67.448 79.56 67.912 77.928 68.84C76.296 69.736 75.016 71 74.088 72.632C73.192 74.264 72.744 76.12 72.744 78.2C72.744 80.28 73.192 82.136 74.088 83.768C75.016 85.4 76.296 86.68 77.928 87.608C79.56 88.504 81.416 88.952 83.496 88.952C86.856 88.952 89.672 87.624 91.944 84.968L96.936 89.576C95.336 91.528 93.352 93.016 90.984 94.04C88.616 95.064 85.976 95.576 83.064 95.576ZM117.355 68.792C120.555 68.792 123.131 69.752 125.083 71.672C127.067 73.592 128.059 76.44 128.059 80.216V95H120.571V81.368C120.571 79.32 120.123 77.8 119.227 76.808C118.331 75.784 117.035 75.272 115.339 75.272C113.451 75.272 111.947 75.864 110.827 77.048C109.707 78.2 109.147 79.928 109.147 82.232V95H101.659V59.384H109.147V71.864C110.139 70.872 111.339 70.12 112.747 69.608C114.155 69.064 115.691 68.792 117.355 68.792ZM160.424 82.184C160.424 82.28 160.376 82.952 160.28 84.2H140.744C141.096 85.8 141.928 87.064 143.24 87.992C144.552 88.92 146.184 89.384 148.136 89.384C149.48 89.384 150.664 89.192 151.688 88.808C152.744 88.392 153.72 87.752 154.616 86.888L158.6 91.208C156.168 93.992 152.616 95.384 147.944 95.384C145.032 95.384 142.456 94.824 140.216 93.704C137.976 92.552 136.248 90.968 135.032 88.952C133.816 86.936 133.208 84.648 133.208 82.088C133.208 79.56 133.8 77.288 134.984 75.272C136.2 73.224 137.848 71.64 139.928 70.52C142.04 69.368 144.392 68.792 146.984 68.792C149.512 68.792 151.8 69.336 153.848 70.424C155.896 71.512 157.496 73.08 158.648 75.128C159.832 77.144 160.424 79.496 160.424 82.184ZM147.032 74.456C145.336 74.456 143.912 74.936 142.76 75.896C141.608 76.856 140.904 78.168 140.648 79.832H153.368C153.112 78.2 152.408 76.904 151.256 75.944C150.104 74.952 148.696 74.456 147.032 74.456ZM174.097 95.384C171.953 95.384 169.857 95.128 167.809 94.616C165.761 94.072 164.129 93.4 162.913 92.6L165.409 87.224C166.561 87.96 167.953 88.568 169.585 89.048C171.217 89.496 172.817 89.72 174.385 89.72C177.553 89.72 179.137 88.936 179.137 87.368C179.137 86.632 178.705 86.104 177.841 85.784C176.977 85.464 175.649 85.192 173.857 84.968C171.745 84.648 170.001 84.28 168.625 83.864C167.249 83.448 166.049 82.712 165.025 81.656C164.033 80.6 163.537 79.096 163.537 77.144C163.537 75.512 164.001 74.072 164.929 72.824C165.889 71.544 167.265 70.552 169.057 69.848C170.881 69.144 173.025 68.792 175.489 68.792C177.313 68.792 179.121 69 180.913 69.416C182.737 69.8 184.241 70.344 185.425 71.048L182.929 76.376C180.657 75.096 178.177 74.456 175.489 74.456C173.889 74.456 172.689 74.68 171.889 75.128C171.089 75.576 170.689 76.152 170.689 76.856C170.689 77.656 171.121 78.216 171.985 78.536C172.849 78.856 174.225 79.16 176.113 79.448C178.225 79.8 179.953 80.184 181.297 80.6C182.641 80.984 183.809 81.704 184.801 82.76C185.793 83.816 186.289 85.288 186.289 87.176C186.289 88.776 185.809 90.2 184.849 91.448C183.889 92.696 182.481 93.672 180.625 94.376C178.801 95.048 176.625 95.384 174.097 95.384ZM199.597 95.384C197.453 95.384 195.357 95.128 193.309 94.616C191.261 94.072 189.629 93.4 188.413 92.6L190.909 87.224C192.061 87.96 193.453 88.568 195.085 89.048C196.717 89.496 198.317 89.72 199.885 89.72C203.053 89.72 204.637 88.936 204.637 87.368C204.637 86.632 204.205 86.104 203.341 85.784C202.477 85.464 201.149 85.192 199.357 84.968C197.245 84.648 195.501 84.28 194.125 83.864C192.749 83.448 191.549 82.712 190.525 81.656C189.533 80.6 189.037 79.096 189.037 77.144C189.037 75.512 189.501 74.072 190.429 72.824C191.389 71.544 192.765 70.552 194.557 69.848C196.381 69.144 198.525 68.792 200.989 68.792C202.813 68.792 204.621 69 206.413 69.416C208.237 69.8 209.741 70.344 210.925 71.048L208.429 76.376C206.157 75.096 203.677 74.456 200.989 74.456C199.389 74.456 198.189 74.68 197.389 75.128C196.589 75.576 196.189 76.152 196.189 76.856C196.189 77.656 196.621 78.216 197.485 78.536C198.349 78.856 199.725 79.16 201.613 79.448C203.725 79.8 205.453 80.184 206.797 80.6C208.141 80.984 209.309 81.704 210.301 82.76C211.293 83.816 211.789 85.288 211.789 87.176C211.789 88.776 211.309 90.2 210.349 91.448C209.389 92.696 207.981 93.672 206.125 94.376C204.301 95.048 202.125 95.384 199.597 95.384ZM253.235 77.672H260.339V91.304C258.515 92.68 256.403 93.736 254.003 94.472C251.603 95.208 249.187 95.576 246.755 95.576C243.267 95.576 240.131 94.84 237.347 93.368C234.563 91.864 232.371 89.8 230.771 87.176C229.203 84.52 228.419 81.528 228.419 78.2C228.419 74.872 229.203 71.896 230.771 69.272C232.371 66.616 234.579 64.552 237.395 63.08C240.211 61.576 243.379 60.824 246.899 60.824C249.843 60.824 252.515 61.32 254.915 62.312C257.315 63.304 259.331 64.744 260.963 66.632L255.971 71.24C253.571 68.712 250.675 67.448 247.283 67.448C245.139 67.448 243.235 67.896 241.571 68.792C239.907 69.688 238.611 70.952 237.683 72.584C236.755 74.216 236.291 76.088 236.291 78.2C236.291 80.28 236.755 82.136 237.683 83.768C238.611 85.4 239.891 86.68 241.523 87.608C243.187 88.504 245.075 88.952 247.187 88.952C249.427 88.952 251.443 88.472 253.235 87.512V77.672ZM277.45 68.792C281.45 68.792 284.522 69.752 286.666 71.672C288.81 73.56 289.882 76.424 289.882 80.264V95H282.874V91.784C281.466 94.184 278.842 95.384 275.002 95.384C273.018 95.384 271.29 95.048 269.818 94.376C268.378 93.704 267.274 92.776 266.506 91.592C265.738 90.408 265.354 89.064 265.354 87.56C265.354 85.16 266.25 83.272 268.042 81.896C269.866 80.52 272.666 79.832 276.442 79.832H282.394C282.394 78.2 281.898 76.952 280.906 76.088C279.914 75.192 278.426 74.744 276.442 74.744C275.066 74.744 273.706 74.968 272.362 75.416C271.05 75.832 269.93 76.408 269.002 77.144L266.314 71.912C267.722 70.92 269.402 70.152 271.354 69.608C273.338 69.064 275.37 68.792 277.45 68.792ZM276.874 90.344C278.154 90.344 279.29 90.056 280.282 89.48C281.274 88.872 281.978 87.992 282.394 86.84V84.2H277.258C274.186 84.2 272.65 85.208 272.65 87.224C272.65 88.184 273.018 88.952 273.754 89.528C274.522 90.072 275.562 90.344 276.874 90.344ZM329.731 68.792C332.963 68.792 335.523 69.752 337.411 71.672C339.331 73.56 340.291 76.408 340.291 80.216V95H332.803V81.368C332.803 79.32 332.371 77.8 331.507 76.808C330.675 75.784 329.475 75.272 327.907 75.272C326.147 75.272 324.755 75.848 323.731 77C322.707 78.12 322.195 79.8 322.195 82.04V95H314.707V81.368C314.707 77.304 313.075 75.272 309.811 75.272C308.083 75.272 306.707 75.848 305.683 77C304.659 78.12 304.147 79.8 304.147 82.04V95H296.659V69.176H303.811V72.152C304.771 71.064 305.939 70.232 307.315 69.656C308.723 69.08 310.259 68.792 311.923 68.792C313.747 68.792 315.395 69.16 316.867 69.896C318.339 70.6 319.523 71.64 320.419 73.016C321.475 71.672 322.803 70.632 324.403 69.896C326.035 69.16 327.811 68.792 329.731 68.792ZM372.58 82.184C372.58 82.28 372.532 82.952 372.436 84.2H352.9C353.252 85.8 354.084 87.064 355.396 87.992C356.708 88.92 358.34 89.384 360.292 89.384C361.636 89.384 362.82 89.192 363.844 88.808C364.9 88.392 365.876 87.752 366.772 86.888L370.756 91.208C368.324 93.992 364.772 95.384 360.1 95.384C357.188 95.384 354.612 94.824 352.372 93.704C350.132 92.552 348.404 90.968 347.188 88.952C345.972 86.936 345.364 84.648 345.364 82.088C345.364 79.56 345.956 77.288 347.14 75.272C348.356 73.224 350.004 71.64 352.084 70.52C354.196 69.368 356.548 68.792 359.14 68.792C361.668 68.792 363.956 69.336 366.004 70.424C368.052 71.512 369.652 73.08 370.804 75.128C371.988 77.144 372.58 79.496 372.58 82.184ZM359.188 74.456C357.492 74.456 356.068 74.936 354.916 75.896C353.764 76.856 353.06 78.168 352.804 79.832H365.524C365.268 78.2 364.564 76.904 363.412 75.944C362.26 74.952 360.852 74.456 359.188 74.456Z" fill="black"/>
<path d="M68.256 118.2H75.6C77.392 118.2 78.984 118.552 80.376 119.256C81.768 119.944 82.848 120.928 83.616 122.208C84.384 123.472 84.768 124.936 84.768 126.6C84.768 128.264 84.384 129.736 83.616 131.016C82.848 132.28 81.768 133.264 80.376 133.968C78.984 134.656 77.392 135 75.6 135H68.256V118.2ZM75.456 132.36C76.688 132.36 77.768 132.128 78.696 131.664C79.64 131.184 80.36 130.512 80.856 129.648C81.368 128.768 81.624 127.752 81.624 126.6C81.624 125.448 81.368 124.44 80.856 123.576C80.36 122.696 79.64 122.024 78.696 121.56C77.768 121.08 76.688 120.84 75.456 120.84H71.376V132.36H75.456ZM99.8441 128.664C99.8441 128.872 99.8281 129.168 99.7961 129.552H89.7401C89.9161 130.496 90.3721 131.248 91.1081 131.808C91.8601 132.352 92.7881 132.624 93.8921 132.624C95.3001 132.624 96.4601 132.16 97.3721 131.232L98.9801 133.08C98.4041 133.768 97.6761 134.288 96.7961 134.64C95.9161 134.992 94.9241 135.168 93.8201 135.168C92.4121 135.168 91.1721 134.888 90.1001 134.328C89.0281 133.768 88.1961 132.992 87.6041 132C87.0281 130.992 86.7401 129.856 86.7401 128.592C86.7401 127.344 87.0201 126.224 87.5801 125.232C88.1561 124.224 88.9481 123.44 89.9561 122.88C90.9641 122.32 92.1001 122.04 93.3641 122.04C94.6121 122.04 95.7241 122.32 96.7001 122.88C97.6921 123.424 98.4601 124.2 99.0041 125.208C99.5641 126.2 99.8441 127.352 99.8441 128.664ZM93.3641 124.44C92.4041 124.44 91.5881 124.728 90.9161 125.304C90.2601 125.864 89.8601 126.616 89.7161 127.56H96.9881C96.8601 126.632 96.4681 125.88 95.8121 125.304C95.1561 124.728 94.3401 124.44 93.3641 124.44ZM114.491 122.184L108.995 135H105.899L100.403 122.184H103.523L107.507 131.688L111.611 122.184H114.491ZM128.063 128.664C128.063 128.872 128.047 129.168 128.015 129.552H117.959C118.135 130.496 118.591 131.248 119.327 131.808C120.079 132.352 121.007 132.624 122.111 132.624C123.519 132.624 124.679 132.16 125.591 131.232L127.199 133.08C126.623 133.768 125.895 134.288 125.015 134.64C124.135 134.992 123.143 135.168 122.039 135.168C120.631 135.168 119.391 134.888 118.319 134.328C117.247 133.768 116.415 132.992 115.823 132C115.247 130.992 114.959 129.856 114.959 128.592C114.959 127.344 115.239 126.224 115.799 125.232C116.375 124.224 117.167 123.44 118.175 122.88C119.183 122.32 120.319 122.04 121.583 122.04C122.831 122.04 123.943 122.32 124.919 122.88C125.911 123.424 126.679 124.2 127.223 125.208C127.783 126.2 128.063 127.352 128.063 128.664ZM121.583 124.44C120.623 124.44 119.807 124.728 119.135 125.304C118.479 125.864 118.079 126.616 117.935 127.56H125.207C125.079 126.632 124.687 125.88 124.031 125.304C123.375 124.728 122.559 124.44 121.583 124.44ZM130.945 117.192H133.945V135H130.945V117.192ZM143.642 135.168C142.346 135.168 141.178 134.888 140.138 134.328C139.098 133.768 138.282 132.992 137.69 132C137.114 130.992 136.826 129.856 136.826 128.592C136.826 127.328 137.114 126.2 137.69 125.208C138.282 124.216 139.098 123.44 140.138 122.88C141.178 122.32 142.346 122.04 143.642 122.04C144.954 122.04 146.13 122.32 147.17 122.88C148.21 123.44 149.018 124.216 149.594 125.208C150.186 126.2 150.482 127.328 150.482 128.592C150.482 129.856 150.186 130.992 149.594 132C149.018 132.992 148.21 133.768 147.17 134.328C146.13 134.888 144.954 135.168 143.642 135.168ZM143.642 132.6C144.746 132.6 145.658 132.232 146.378 131.496C147.098 130.76 147.458 129.792 147.458 128.592C147.458 127.392 147.098 126.424 146.378 125.688C145.658 124.952 144.746 124.584 143.642 124.584C142.538 124.584 141.626 124.952 140.906 125.688C140.202 126.424 139.85 127.392 139.85 128.592C139.85 129.792 140.202 130.76 140.906 131.496C141.626 132.232 142.538 132.6 143.642 132.6ZM160.455 122.04C161.703 122.04 162.815 122.312 163.791 122.856C164.783 123.4 165.559 124.168 166.119 125.16C166.679 126.152 166.959 127.296 166.959 128.592C166.959 129.888 166.679 131.04 166.119 132.048C165.559 133.04 164.783 133.808 163.791 134.352C162.815 134.896 161.703 135.168 160.455 135.168C158.727 135.168 157.359 134.592 156.351 133.44V139.656H153.351V122.184H156.207V123.864C156.703 123.256 157.311 122.8 158.031 122.496C158.767 122.192 159.575 122.04 160.455 122.04ZM160.119 132.6C161.223 132.6 162.127 132.232 162.831 131.496C163.551 130.76 163.911 129.792 163.911 128.592C163.911 127.392 163.551 126.424 162.831 125.688C162.127 124.952 161.223 124.584 160.119 124.584C159.399 124.584 158.751 124.752 158.175 125.088C157.599 125.408 157.143 125.872 156.807 126.48C156.471 127.088 156.303 127.792 156.303 128.592C156.303 129.392 156.471 130.096 156.807 130.704C157.143 131.312 157.599 131.784 158.175 132.12C158.751 132.44 159.399 132.6 160.119 132.6ZM181.852 128.664C181.852 128.872 181.836 129.168 181.804 129.552H171.748C171.924 130.496 172.38 131.248 173.116 131.808C173.868 132.352 174.796 132.624 175.9 132.624C177.308 132.624 178.468 132.16 179.38 131.232L180.988 133.08C180.412 133.768 179.684 134.288 178.804 134.64C177.924 134.992 176.932 135.168 175.828 135.168C174.42 135.168 173.18 134.888 172.108 134.328C171.036 133.768 170.204 132.992 169.612 132C169.036 130.992 168.748 129.856 168.748 128.592C168.748 127.344 169.028 126.224 169.588 125.232C170.164 124.224 170.956 123.44 171.964 122.88C172.972 122.32 174.108 122.04 175.372 122.04C176.62 122.04 177.732 122.32 178.708 122.88C179.7 123.424 180.468 124.2 181.012 125.208C181.572 126.2 181.852 127.352 181.852 128.664ZM175.372 124.44C174.412 124.44 173.596 124.728 172.924 125.304C172.268 125.864 171.868 126.616 171.724 127.56H178.996C178.868 126.632 178.476 125.88 177.82 125.304C177.164 124.728 176.348 124.44 175.372 124.44ZM197.286 117.192V135H194.406V133.344C193.91 133.952 193.294 134.408 192.558 134.712C191.838 135.016 191.038 135.168 190.158 135.168C188.926 135.168 187.814 134.896 186.822 134.352C185.846 133.808 185.078 133.04 184.518 132.048C183.958 131.04 183.678 129.888 183.678 128.592C183.678 127.296 183.958 126.152 184.518 125.16C185.078 124.168 185.846 123.4 186.822 122.856C187.814 122.312 188.926 122.04 190.158 122.04C191.006 122.04 191.782 122.184 192.486 122.472C193.19 122.76 193.79 123.192 194.286 123.768V117.192H197.286ZM190.518 132.6C191.238 132.6 191.886 132.44 192.462 132.12C193.038 131.784 193.494 131.312 193.83 130.704C194.166 130.096 194.334 129.392 194.334 128.592C194.334 127.792 194.166 127.088 193.83 126.48C193.494 125.872 193.038 125.408 192.462 125.088C191.886 124.752 191.238 124.584 190.518 124.584C189.798 124.584 189.15 124.752 188.574 125.088C187.998 125.408 187.542 125.872 187.206 126.48C186.87 127.088 186.702 127.792 186.702 128.592C186.702 129.392 186.87 130.096 187.206 130.704C187.542 131.312 187.998 131.784 188.574 132.12C189.15 132.44 189.798 132.6 190.518 132.6ZM214.947 122.04C216.195 122.04 217.307 122.312 218.283 122.856C219.275 123.4 220.051 124.168 220.611 125.16C221.171 126.152 221.451 127.296 221.451 128.592C221.451 129.888 221.171 131.04 220.611 132.048C220.051 133.04 219.275 133.808 218.283 134.352C217.307 134.896 216.195 135.168 214.947 135.168C214.067 135.168 213.259 135.016 212.523 134.712C211.803 134.408 211.195 133.952 210.699 133.344V135H207.843V117.192H210.843V123.744C211.355 123.184 211.955 122.76 212.643 122.472C213.347 122.184 214.115 122.04 214.947 122.04ZM214.611 132.6C215.715 132.6 216.619 132.232 217.323 131.496C218.043 130.76 218.403 129.792 218.403 128.592C218.403 127.392 218.043 126.424 217.323 125.688C216.619 124.952 215.715 124.584 214.611 124.584C213.891 124.584 213.243 124.752 212.667 125.088C212.091 125.408 211.635 125.872 211.299 126.48C210.963 127.088 210.795 127.792 210.795 128.592C210.795 129.392 210.963 130.096 211.299 130.704C211.635 131.312 212.091 131.784 212.667 132.12C213.243 132.44 213.891 132.6 214.611 132.6ZM235.945 122.184L229.945 136.032C229.385 137.424 228.705 138.4 227.905 138.96C227.105 139.536 226.137 139.824 225.001 139.824C224.361 139.824 223.729 139.72 223.105 139.512C222.481 139.304 221.969 139.016 221.569 138.648L222.769 136.44C223.057 136.712 223.393 136.928 223.777 137.088C224.177 137.248 224.577 137.328 224.977 137.328C225.505 137.328 225.937 137.192 226.273 136.92C226.625 136.648 226.945 136.192 227.233 135.552L227.449 135.048L221.857 122.184H224.977L229.009 131.664L233.065 122.184H235.945ZM238.897 126.024C238.353 126.024 237.889 125.84 237.505 125.472C237.121 125.088 236.929 124.608 236.929 124.032C236.929 123.44 237.113 122.96 237.481 122.592C237.865 122.224 238.337 122.04 238.897 122.04C239.457 122.04 239.921 122.224 240.289 122.592C240.673 122.96 240.865 123.44 240.865 124.032C240.865 124.608 240.673 125.088 240.289 125.472C239.905 125.84 239.441 126.024 238.897 126.024ZM238.897 135.168C238.353 135.168 237.889 134.984 237.505 134.616C237.121 134.232 236.929 133.752 236.929 133.176C236.929 132.584 237.113 132.104 237.481 131.736C237.865 131.368 238.337 131.184 238.897 131.184C239.457 131.184 239.921 131.368 240.289 131.736C240.673 132.104 240.865 132.584 240.865 133.176C240.865 133.752 240.673 134.232 240.289 134.616C239.905 134.984 239.441 135.168 238.897 135.168ZM80.616 162.464V164H68.736V147.2H80.256V148.736H70.512V154.712H79.2V156.224H70.512V162.464H80.616ZM100.175 151.28C101.759 151.28 102.999 151.736 103.895 152.648C104.807 153.56 105.263 154.904 105.263 156.68V164H103.559V156.848C103.559 155.536 103.239 154.536 102.599 153.848C101.975 153.16 101.087 152.816 99.9347 152.816C98.6227 152.816 97.5907 153.224 96.8387 154.04C96.0867 154.84 95.7107 155.952 95.7107 157.376V164H94.0067V156.848C94.0067 155.536 93.6867 154.536 93.0467 153.848C92.4227 153.16 91.5267 152.816 90.3587 152.816C89.0627 152.816 88.0307 153.224 87.2627 154.04C86.5107 154.84 86.1347 155.952 86.1347 157.376V164H84.4307V151.376H86.0627V153.68C86.5107 152.912 87.1347 152.32 87.9347 151.904C88.7347 151.488 89.6547 151.28 90.6947 151.28C91.7507 151.28 92.6627 151.504 93.4307 151.952C94.2147 152.4 94.7987 153.064 95.1827 153.944C95.6467 153.112 96.3107 152.464 97.1747 152C98.0547 151.52 99.0547 151.28 100.175 151.28ZM120.923 158.216H110.363C110.459 159.528 110.963 160.592 111.875 161.408C112.787 162.208 113.939 162.608 115.331 162.608C116.115 162.608 116.835 162.472 117.491 162.2C118.147 161.912 118.715 161.496 119.195 160.952L120.155 162.056C119.595 162.728 118.891 163.24 118.043 163.592C117.211 163.944 116.291 164.12 115.283 164.12C113.987 164.12 112.835 163.848 111.827 163.304C110.835 162.744 110.059 161.976 109.499 161C108.939 160.024 108.659 158.92 108.659 157.688C108.659 156.456 108.923 155.352 109.451 154.376C109.995 153.4 110.731 152.64 111.659 152.096C112.603 151.552 113.659 151.28 114.827 151.28C115.995 151.28 117.043 151.552 117.971 152.096C118.899 152.64 119.627 153.4 120.155 154.376C120.683 155.336 120.947 156.44 120.947 157.688L120.923 158.216ZM114.827 152.744C113.611 152.744 112.587 153.136 111.755 153.92C110.939 154.688 110.475 155.696 110.363 156.944H119.315C119.203 155.696 118.731 154.688 117.899 153.92C117.083 153.136 116.059 152.744 114.827 152.744ZM126.047 153.848C126.447 153 127.039 152.36 127.823 151.928C128.623 151.496 129.607 151.28 130.775 151.28V152.936L130.367 152.912C129.039 152.912 127.999 153.32 127.247 154.136C126.495 154.952 126.119 156.096 126.119 157.568V164H124.415V151.376H126.047V153.848ZM137.338 164.12C136.314 164.12 135.33 163.976 134.386 163.688C133.458 163.384 132.73 163.008 132.202 162.56L132.97 161.216C133.498 161.632 134.162 161.976 134.962 162.248C135.762 162.504 136.594 162.632 137.458 162.632C138.61 162.632 139.458 162.456 140.002 162.104C140.562 161.736 140.842 161.224 140.842 160.568C140.842 160.104 140.69 159.744 140.386 159.488C140.082 159.216 139.698 159.016 139.234 158.888C138.77 158.744 138.154 158.608 137.386 158.48C136.362 158.288 135.538 158.096 134.914 157.904C134.29 157.696 133.754 157.352 133.306 156.872C132.874 156.392 132.658 155.728 132.658 154.88C132.658 153.824 133.098 152.96 133.978 152.288C134.858 151.616 136.082 151.28 137.65 151.28C138.466 151.28 139.282 151.392 140.098 151.616C140.914 151.824 141.586 152.104 142.114 152.456L141.37 153.824C140.33 153.104 139.09 152.744 137.65 152.744C136.562 152.744 135.738 152.936 135.178 153.32C134.634 153.704 134.362 154.208 134.362 154.832C134.362 155.312 134.514 155.696 134.818 155.984C135.138 156.272 135.53 156.488 135.994 156.632C136.458 156.76 137.098 156.896 137.914 157.04C138.922 157.232 139.73 157.424 140.338 157.616C140.946 157.808 141.466 158.136 141.898 158.6C142.33 159.064 142.546 159.704 142.546 160.52C142.546 161.624 142.082 162.504 141.154 163.16C140.242 163.8 138.97 164.12 137.338 164.12ZM150.856 164.12C149.64 164.12 148.544 163.848 147.568 163.304C146.592 162.744 145.824 161.976 145.264 161C144.704 160.024 144.424 158.92 144.424 157.688C144.424 156.456 144.704 155.352 145.264 154.376C145.824 153.4 146.592 152.64 147.568 152.096C148.544 151.552 149.64 151.28 150.856 151.28C152.072 151.28 153.168 151.552 154.144 152.096C155.12 152.64 155.88 153.4 156.424 154.376C156.984 155.352 157.264 156.456 157.264 157.688C157.264 158.92 156.984 160.024 156.424 161C155.88 161.976 155.12 162.744 154.144 163.304C153.168 163.848 152.072 164.12 150.856 164.12ZM150.856 162.608C151.752 162.608 152.552 162.408 153.256 162.008C153.976 161.592 154.536 161.008 154.936 160.256C155.336 159.504 155.536 158.648 155.536 157.688C155.536 156.728 155.336 155.872 154.936 155.12C154.536 154.368 153.976 153.792 153.256 153.392C152.552 152.976 151.752 152.768 150.856 152.768C149.96 152.768 149.152 152.976 148.432 153.392C147.728 153.792 147.168 154.368 146.752 155.12C146.352 155.872 146.152 156.728 146.152 157.688C146.152 158.648 146.352 159.504 146.752 160.256C147.168 161.008 147.728 161.592 148.432 162.008C149.152 162.408 149.96 162.608 150.856 162.608ZM167.175 151.28C168.759 151.28 170.015 151.744 170.943 152.672C171.887 153.584 172.359 154.92 172.359 156.68V164H170.655V156.848C170.655 155.536 170.327 154.536 169.671 153.848C169.015 153.16 168.079 152.816 166.863 152.816C165.503 152.816 164.423 153.224 163.623 154.04C162.839 154.84 162.447 155.952 162.447 157.376V164H160.743V151.376H162.375V153.704C162.839 152.936 163.479 152.344 164.295 151.928C165.127 151.496 166.087 151.28 167.175 151.28ZM195.747 162.464V164H181.971V162.776L193.107 148.736H182.139V147.2H195.459V148.424L184.347 162.464H195.747ZM203.339 151.28C204.987 151.28 206.251 151.696 207.131 152.528C208.011 153.344 208.451 154.56 208.451 156.176V164H206.819V162.032C206.435 162.688 205.867 163.2 205.115 163.568C204.379 163.936 203.499 164.12 202.475 164.12C201.067 164.12 199.947 163.784 199.115 163.112C198.283 162.44 197.867 161.552 197.867 160.448C197.867 159.376 198.251 158.512 199.019 157.856C199.803 157.2 201.043 156.872 202.739 156.872H206.747V156.104C206.747 155.016 206.443 154.192 205.835 153.632C205.227 153.056 204.339 152.768 203.171 152.768C202.371 152.768 201.603 152.904 200.867 153.176C200.131 153.432 199.499 153.792 198.971 154.256L198.203 152.984C198.843 152.44 199.611 152.024 200.507 151.736C201.403 151.432 202.347 151.28 203.339 151.28ZM202.739 162.776C203.699 162.776 204.523 162.56 205.211 162.128C205.899 161.68 206.411 161.04 206.747 160.208V158.144H202.787C200.627 158.144 199.547 158.896 199.547 160.4C199.547 161.136 199.827 161.72 200.387 162.152C200.947 162.568 201.731 162.776 202.739 162.776ZM219.511 151.28C221.095 151.28 222.351 151.744 223.279 152.672C224.223 153.584 224.695 154.92 224.695 156.68V164H222.991V156.848C222.991 155.536 222.663 154.536 222.007 153.848C221.351 153.16 220.415 152.816 219.199 152.816C217.839 152.816 216.759 153.224 215.959 154.04C215.175 154.84 214.783 155.952 214.783 157.376V164H213.079V151.376H214.711V153.704C215.175 152.936 215.815 152.344 216.631 151.928C217.463 151.496 218.423 151.28 219.511 151.28ZM229.321 151.376H231.025V164H229.321V151.376ZM230.185 148.616C229.833 148.616 229.537 148.496 229.297 148.256C229.057 148.016 228.937 147.728 228.937 147.392C228.937 147.072 229.057 146.792 229.297 146.552C229.537 146.312 229.833 146.192 230.185 146.192C230.537 146.192 230.833 146.312 231.073 146.552C231.313 146.776 231.433 147.048 231.433 147.368C231.433 147.72 231.313 148.016 231.073 148.256C230.833 148.496 230.537 148.616 230.185 148.616ZM244.208 164.144C243.248 164.144 242.36 163.936 241.544 163.52C240.728 163.104 240.064 162.512 239.552 161.744L240.608 160.544C241.536 161.92 242.744 162.608 244.232 162.608C246.312 162.608 247.352 161.376 247.352 158.912V148.736H241.208V147.2H249.104V158.84C249.104 160.6 248.688 161.928 247.856 162.824C247.04 163.704 245.824 164.144 244.208 164.144ZM255.703 153.848C256.103 153 256.695 152.36 257.479 151.928C258.279 151.496 259.263 151.28 260.431 151.28V152.936L260.023 152.912C258.695 152.912 257.655 153.32 256.903 154.136C256.151 154.952 255.775 156.096 255.775 157.568V164H254.071V151.376H255.703V153.848ZM263.638 164.12C263.286 164.12 262.982 163.992 262.726 163.736C262.486 163.48 262.366 163.168 262.366 162.8C262.366 162.432 262.486 162.128 262.726 161.888C262.982 161.632 263.286 161.504 263.638 161.504C263.99 161.504 264.294 161.632 264.55 161.888C264.806 162.128 264.934 162.432 264.934 162.8C264.934 163.168 264.806 163.48 264.55 163.736C264.294 163.992 263.99 164.12 263.638 164.12ZM287.221 164.264L284.893 161.864C283.469 163.384 281.597 164.144 279.277 164.144C278.189 164.144 277.213 163.968 276.349 163.616C275.501 163.248 274.837 162.744 274.357 162.104C273.877 161.448 273.637 160.704 273.637 159.872C273.637 158.864 273.957 157.96 274.597 157.16C275.237 156.36 276.325 155.52 277.861 154.64C277.061 153.808 276.509 153.104 276.205 152.528C275.901 151.936 275.749 151.312 275.749 150.656C275.749 149.584 276.133 148.72 276.901 148.064C277.669 147.408 278.701 147.08 279.997 147.08C281.197 147.08 282.149 147.376 282.853 147.968C283.557 148.56 283.909 149.376 283.909 150.416C283.909 151.248 283.629 152 283.069 152.672C282.509 153.328 281.541 154.056 280.165 154.856L284.773 159.608C285.285 158.696 285.661 157.616 285.901 156.368L287.293 156.8C286.989 158.304 286.493 159.592 285.805 160.664L288.205 163.136L287.221 164.264ZM279.997 148.352C279.165 148.352 278.509 148.56 278.029 148.976C277.565 149.392 277.333 149.944 277.333 150.632C277.333 151.128 277.461 151.6 277.717 152.048C277.973 152.496 278.477 153.104 279.229 153.872C280.445 153.168 281.285 152.568 281.749 152.072C282.213 151.576 282.445 151.032 282.445 150.44C282.445 149.8 282.229 149.296 281.797 148.928C281.365 148.544 280.765 148.352 279.997 148.352ZM279.373 162.728C281.229 162.728 282.733 162.096 283.885 160.832L278.821 155.624C277.493 156.376 276.573 157.056 276.061 157.664C275.565 158.272 275.317 158.952 275.317 159.704C275.317 160.616 275.685 161.352 276.421 161.912C277.173 162.456 278.157 162.728 279.373 162.728ZM297.533 147.2H299.309V162.464H308.717V164H297.533V147.2ZM322.494 151.376V164H320.862V161.696C320.414 162.464 319.798 163.064 319.014 163.496C318.23 163.912 317.334 164.12 316.326 164.12C314.678 164.12 313.374 163.664 312.414 162.752C311.47 161.824 310.998 160.472 310.998 158.696V151.376H312.702V158.528C312.702 159.856 313.03 160.864 313.686 161.552C314.342 162.24 315.278 162.584 316.494 162.584C317.822 162.584 318.87 162.184 319.638 161.384C320.406 160.568 320.79 159.44 320.79 158V151.376H322.494ZM327.267 151.376H328.971V164H327.267V151.376ZM328.131 148.616C327.779 148.616 327.483 148.496 327.243 148.256C327.003 148.016 326.883 147.728 326.883 147.392C326.883 147.072 327.003 146.792 327.243 146.552C327.483 146.312 327.779 146.192 328.131 146.192C328.483 146.192 328.779 146.312 329.019 146.552C329.259 146.776 329.379 147.048 329.379 147.368C329.379 147.72 329.259 148.016 329.019 148.256C328.779 148.496 328.483 148.616 328.131 148.616ZM337.096 164.12C336.072 164.12 335.088 163.976 334.144 163.688C333.216 163.384 332.488 163.008 331.96 162.56L332.728 161.216C333.256 161.632 333.92 161.976 334.72 162.248C335.52 162.504 336.352 162.632 337.216 162.632C338.368 162.632 339.216 162.456 339.76 162.104C340.32 161.736 340.6 161.224 340.6 160.568C340.6 160.104 340.448 159.744 340.144 159.488C339.84 159.216 339.456 159.016 338.992 158.888C338.528 158.744 337.912 158.608 337.144 158.48C336.12 158.288 335.296 158.096 334.672 157.904C334.048 157.696 333.512 157.352 333.064 156.872C332.632 156.392 332.416 155.728 332.416 154.88C332.416 153.824 332.856 152.96 333.736 152.288C334.616 151.616 335.84 151.28 337.408 151.28C338.224 151.28 339.04 151.392 339.856 151.616C340.672 151.824 341.344 152.104 341.872 152.456L341.128 153.824C340.088 153.104 338.848 152.744 337.408 152.744C336.32 152.744 335.496 152.936 334.936 153.32C334.392 153.704 334.12 154.208 334.12 154.832C334.12 155.312 334.272 155.696 334.576 155.984C334.896 156.272 335.288 156.488 335.752 156.632C336.216 156.76 336.856 156.896 337.672 157.04C338.68 157.232 339.488 157.424 340.096 157.616C340.704 157.808 341.224 158.136 341.656 158.6C342.088 159.064 342.304 159.704 342.304 160.52C342.304 161.624 341.84 162.504 340.912 163.16C340 163.8 338.728 164.12 337.096 164.12ZM363.927 155.6H365.631V162.008C364.847 162.696 363.919 163.224 362.847 163.592C361.775 163.96 360.647 164.144 359.463 164.144C357.783 164.144 356.271 163.776 354.927 163.04C353.583 162.304 352.527 161.288 351.759 159.992C350.991 158.68 350.607 157.216 350.607 155.6C350.607 153.984 350.991 152.528 351.759 151.232C352.527 149.92 353.583 148.896 354.927 148.16C356.271 147.424 357.791 147.056 359.487 147.056C360.767 147.056 361.943 147.264 363.015 147.68C364.087 148.08 364.991 148.68 365.727 149.48L364.623 150.608C363.295 149.296 361.607 148.64 359.559 148.64C358.199 148.64 356.967 148.944 355.863 149.552C354.775 150.144 353.919 150.976 353.295 152.048C352.671 153.104 352.359 154.288 352.359 155.6C352.359 156.912 352.671 158.096 353.295 159.152C353.919 160.208 354.775 161.04 355.863 161.648C356.951 162.256 358.175 162.56 359.535 162.56C361.263 162.56 362.727 162.128 363.927 161.264V155.6ZM370.7 164.12C370.348 164.12 370.044 163.992 369.788 163.736C369.548 163.48 369.428 163.168 369.428 162.8C369.428 162.432 369.548 162.128 369.788 161.888C370.044 161.632 370.348 161.504 370.7 161.504C371.052 161.504 371.356 161.632 371.612 161.888C371.868 162.128 371.996 162.432 371.996 162.8C371.996 163.168 371.868 163.48 371.612 163.736C371.356 163.992 371.052 164.12 370.7 164.12ZM389.555 164.144C387.891 164.144 386.387 163.776 385.043 163.04C383.715 162.304 382.667 161.288 381.899 159.992C381.147 158.68 380.771 157.216 380.771 155.6C380.771 153.984 381.147 152.528 381.899 151.232C382.667 149.92 383.723 148.896 385.067 148.16C386.411 147.424 387.915 147.056 389.579 147.056C390.827 147.056 391.979 147.264 393.035 147.68C394.091 148.096 394.987 148.704 395.723 149.504L394.595 150.632C393.283 149.304 391.627 148.64 389.627 148.64C388.299 148.64 387.091 148.944 386.003 149.552C384.915 150.16 384.059 150.992 383.435 152.048C382.827 153.104 382.523 154.288 382.523 155.6C382.523 156.912 382.827 158.096 383.435 159.152C384.059 160.208 384.915 161.04 386.003 161.648C387.091 162.256 388.299 162.56 389.627 162.56C391.643 162.56 393.299 161.888 394.595 160.544L395.723 161.672C394.987 162.472 394.083 163.088 393.011 163.52C391.955 163.936 390.803 164.144 389.555 164.144ZM399.149 151.376H400.853V164H399.149V151.376ZM400.013 148.616C399.661 148.616 399.365 148.496 399.125 148.256C398.885 148.016 398.765 147.728 398.765 147.392C398.765 147.072 398.885 146.792 399.125 146.552C399.365 146.312 399.661 146.192 400.013 146.192C400.365 146.192 400.661 146.312 400.901 146.552C401.141 146.776 401.261 147.048 401.261 147.368C401.261 147.72 401.141 148.016 400.901 148.256C400.661 148.496 400.365 148.616 400.013 148.616ZM410.011 151.28C411.659 151.28 412.923 151.696 413.803 152.528C414.683 153.344 415.123 154.56 415.123 156.176V164H413.491V162.032C413.107 162.688 412.539 163.2 411.787 163.568C411.051 163.936 410.171 164.12 409.147 164.12C407.739 164.12 406.619 163.784 405.787 163.112C404.955 162.44 404.539 161.552 404.539 160.448C404.539 159.376 404.923 158.512 405.691 157.856C406.475 157.2 407.715 156.872 409.411 156.872H413.419V156.104C413.419 155.016 413.115 154.192 412.507 153.632C411.899 153.056 411.011 152.768 409.843 152.768C409.043 152.768 408.275 152.904 407.539 153.176C406.803 153.432 406.171 153.792 405.643 154.256L404.875 152.984C405.515 152.44 406.283 152.024 407.179 151.736C408.075 151.432 409.019 151.28 410.011 151.28ZM409.411 162.776C410.371 162.776 411.195 162.56 411.883 162.128C412.571 161.68 413.083 161.04 413.419 160.208V158.144H409.459C407.299 158.144 406.219 158.896 406.219 160.4C406.219 161.136 406.499 161.72 407.059 162.152C407.619 162.568 408.403 162.776 409.411 162.776ZM421.383 153.848C421.783 153 422.375 152.36 423.159 151.928C423.959 151.496 424.943 151.28 426.111 151.28V152.936L425.703 152.912C424.375 152.912 423.335 153.32 422.583 154.136C421.831 154.952 421.455 156.096 421.455 157.568V164H419.751V151.376H421.383V153.848ZM435.7 151.28C436.884 151.28 437.956 151.552 438.916 152.096C439.876 152.624 440.628 153.376 441.172 154.352C441.716 155.328 441.988 156.44 441.988 157.688C441.988 158.936 441.716 160.048 441.172 161.024C440.628 162 439.876 162.76 438.916 163.304C437.956 163.848 436.884 164.12 435.7 164.12C434.644 164.12 433.692 163.896 432.844 163.448C432.012 163 431.34 162.352 430.828 161.504V164H429.196V146.192H430.9V153.776C431.428 152.96 432.1 152.344 432.916 151.928C433.748 151.496 434.676 151.28 435.7 151.28ZM435.58 162.608C436.46 162.608 437.26 162.408 437.98 162.008C438.7 161.592 439.26 161.008 439.66 160.256C440.076 159.504 440.284 158.648 440.284 157.688C440.284 156.728 440.076 155.872 439.66 155.12C439.26 154.368 438.7 153.792 437.98 153.392C437.26 152.976 436.46 152.768 435.58 152.768C434.684 152.768 433.876 152.976 433.156 153.392C432.452 153.792 431.892 154.368 431.476 155.12C431.076 155.872 430.876 156.728 430.876 157.688C430.876 158.648 431.076 159.504 431.476 160.256C431.892 161.008 432.452 161.592 433.156 162.008C433.876 162.408 434.684 162.608 435.58 162.608ZM456.454 158.216H445.894C445.99 159.528 446.494 160.592 447.406 161.408C448.318 162.208 449.47 162.608 450.862 162.608C451.646 162.608 452.366 162.472 453.022 162.2C453.678 161.912 454.246 161.496 454.726 160.952L455.686 162.056C455.126 162.728 454.422 163.24 453.574 163.592C452.742 163.944 451.822 164.12 450.814 164.12C449.518 164.12 448.366 163.848 447.358 163.304C446.366 162.744 445.59 161.976 445.03 161C444.47 160.024 444.19 158.92 444.19 157.688C444.19 156.456 444.454 155.352 444.982 154.376C445.526 153.4 446.262 152.64 447.19 152.096C448.134 151.552 449.19 151.28 450.358 151.28C451.526 151.28 452.574 151.552 453.502 152.096C454.43 152.64 455.158 153.4 455.686 154.376C456.214 155.336 456.478 156.44 456.478 157.688L456.454 158.216ZM450.358 152.744C449.142 152.744 448.118 153.136 447.286 153.92C446.47 154.688 446.006 155.696 445.894 156.944H454.846C454.734 155.696 454.262 154.688 453.43 153.92C452.614 153.136 451.59 152.744 450.358 152.744ZM459.946 146.192H461.65V164H459.946V146.192ZM466.392 146.192H468.096V164H466.392V146.192ZM477.997 164.12C476.781 164.12 475.685 163.848 474.709 163.304C473.733 162.744 472.965 161.976 472.405 161C471.845 160.024 471.565 158.92 471.565 157.688C471.565 156.456 471.845 155.352 472.405 154.376C472.965 153.4 473.733 152.64 474.709 152.096C475.685 151.552 476.781 151.28 477.997 151.28C479.213 151.28 480.309 151.552 481.285 152.096C482.261 152.64 483.021 153.4 483.565 154.376C484.125 155.352 484.405 156.456 484.405 157.688C484.405 158.92 484.125 160.024 483.565 161C483.021 161.976 482.261 162.744 481.285 163.304C480.309 163.848 479.213 164.12 477.997 164.12ZM477.997 162.608C478.893 162.608 479.693 162.408 480.397 162.008C481.117 161.592 481.677 161.008 482.077 160.256C482.477 159.504 482.677 158.648 482.677 157.688C482.677 156.728 482.477 155.872 482.077 155.12C481.677 154.368 481.117 153.792 480.397 153.392C479.693 152.976 478.893 152.768 477.997 152.768C477.101 152.768 476.293 152.976 475.573 153.392C474.869 153.792 474.309 154.368 473.893 155.12C473.493 155.872 473.293 156.728 473.293 157.688C473.293 158.648 473.493 159.504 473.893 160.256C474.309 161.008 474.869 161.592 475.573 162.008C476.293 162.408 477.101 162.608 477.997 162.608Z" fill="#5E7AC1"/>
<g opacity="0.3" filter="url(#filter1_i_1_16)">
<path fill-rule="evenodd" clip-rule="evenodd" d="M877 135.023L810.941 59C801.378 76.9122 792.108 108.526 805.436 131.348C798.967 131.916 792.785 132.996 788.003 134.889C757.494 146.97 724.019 178.18 707.566 243.116C702.802 261.919 694.228 270.923 684.036 281.625C674.423 291.72 663.372 303.325 652.723 326.09C630.786 372.988 689.99 419.887 733.16 377.291C757.431 353.343 778.646 343.457 796.457 335.157C822.093 323.21 840.679 314.549 851.177 271.977C856.172 291.835 854.174 338.7 806.224 367.296C758.274 395.891 748.284 456.128 749.283 474H1022C1022 304.324 999.233 157.724 877 135.023Z" fill="#7B61FF"/>
</g>
</g>
<defs>
<filter id="filter0_d_1_16" x="-24.8752" y="186.121" width="594.325" height="609.101" filterUnits="userSpaceOnUse" color-interpolation-filters="sRGB">
<feFlood flood-opacity="0" result="BackgroundImageFix"/>
<feColorMatrix in="SourceAlpha" type="matrix" values="0 0 0 0 0 0 0 0 0 0 0 0 0 0 0 0 0 0 127 0" result="hardAlpha"/>
<feOffset dy="2"/>
<feGaussianBlur stdDeviation="8"/>
<feColorMatrix type="matrix" values="0 0 0 0 0.783854 0 0 0 0 0.809375 0 0 0 0 0.875 0 0 0 0.5 0"/>
<feBlend mode="normal" in2="BackgroundImageFix" result="effect1_dropShadow_1_16"/>
<feBlend mode="normal" in="SourceGraphic" in2="effect1_dropShadow_1_16" result="shape"/>
</filter>
<filter id="filter1_i_1_16" x="648" y="59" width="374" height="419" filterUnits="userSpaceOnUse" color-interpolation-filters="sRGB">
<feFlood flood-opacity="0" result="BackgroundImageFix"/>
<feBlend mode="normal" in="SourceGraphic" in2="BackgroundImageFix" result="shape"/>
<feColorMatrix in="SourceAlpha" type="matrix" values="0 0 0 0 0 0 0 0 0 0 0 0 0 0 0 0 0 0 127 0" result="hardAlpha"/>
<feOffset dy="4"/>
<feGaussianBlur stdDeviation="2"/>
<feComposite in2="hardAlpha" operator="arithmetic" k2="-1" k3="1"/>
<feColorMatrix type="matrix" values="0 0 0 0 0 0 0 0 0 0 0 0 0 0 0 0 0 0 0.25 0"/>
<feBlend mode="normal" in2="shape" result="effect1_innerShadow_1_16"/>
</filter>
<linearGradient id="paint0_linear_1_16" x1="497.5" y1="0" x2="497.5" y2="426" gradientUnits="userSpaceOnUse">
<stop stop-color="#C8CEDB"/>
<stop offset="1" stop-color="#C8CEDB" stop-opacity="0.72"/>
</linearGradient>
<clipPath id="clip0_1_16">
<rect width="995" height="426" fill="white"/>
</clipPath>
</defs>
</svg>
